<svg width="514" height="200" viewBox="0 0 514 200" fill="none" xmlns="http://www.w3.org/2000/svg">
<g clip-path="url(#clip0_2746_70)">
<path fill-rule="evenodd" clip-rule="evenodd" d="M256.941 103.449L278.362 110.576C278.484 110.617 278.589 110.697 278.661 110.804C278.733 110.911 278.767 111.039 278.759 111.167L277.345 132.067C277.339 132.149 277.351 132.232 277.379 132.309C277.408 132.386 277.453 132.456 277.51 132.514L283.868 138.973C284.078 139.187 284.092 139.525 283.899 139.754L275.348 149.979C275.269 150.074 275.161 150.141 275.042 150.171C274.922 150.201 274.796 150.192 274.681 150.145L269.645 148.093C269.57 148.062 269.489 148.048 269.408 148.05C269.327 148.053 269.247 148.072 269.174 148.107C269.101 148.142 269.035 148.192 268.983 148.254C268.93 148.315 268.891 148.387 268.867 148.465L266.509 156.347C266.481 156.439 266.432 156.522 266.364 156.59C266.297 156.658 266.214 156.708 266.122 156.736L257.113 159.503C257.001 159.537 256.882 159.537 256.771 159.503L247.761 156.736C247.67 156.708 247.587 156.658 247.519 156.59C247.452 156.522 247.402 156.439 247.375 156.347L245.016 148.465C244.993 148.387 244.953 148.315 244.901 148.254C244.848 148.192 244.783 148.142 244.709 148.107C244.636 148.072 244.556 148.053 244.475 148.05C244.394 148.048 244.313 148.062 244.238 148.093L239.202 150.145C239.088 150.192 238.961 150.201 238.842 150.171C238.722 150.141 238.615 150.074 238.535 149.979L229.984 139.754C229.891 139.643 229.843 139.502 229.849 139.358C229.854 139.213 229.914 139.076 230.015 138.973L236.373 132.514C236.49 132.396 236.55 132.233 236.539 132.067L235.125 111.167C235.116 111.039 235.15 110.911 235.222 110.804C235.294 110.697 235.399 110.617 235.522 110.576L256.941 103.449ZM245.091 130.396C241.97 130.396 239.436 132.928 239.436 136.046C239.436 139.165 241.97 141.697 245.091 141.697C248.213 141.697 250.747 139.165 250.747 136.046C250.747 132.927 248.213 130.396 245.091 130.396ZM268.792 130.396C265.671 130.396 263.136 132.928 263.136 136.046C263.136 139.165 265.671 141.697 268.792 141.697C271.913 141.697 274.448 139.165 274.448 136.046C274.448 132.927 271.913 130.396 268.792 130.396ZM256.694 142.154L253.479 146.847C253.416 146.938 253.391 147.05 253.408 147.159C253.425 147.269 253.483 147.368 253.57 147.436L254.755 148.361C254.841 148.429 254.95 148.461 255.059 148.452C255.169 148.443 255.27 148.393 255.345 148.312L256.791 146.735C256.811 146.714 256.834 146.698 256.86 146.686C256.885 146.675 256.913 146.669 256.942 146.669C256.97 146.669 256.998 146.675 257.024 146.686C257.05 146.698 257.073 146.714 257.092 146.735L258.539 148.312C258.613 148.393 258.715 148.443 258.824 148.452C258.933 148.461 259.042 148.428 259.129 148.361L260.313 147.436C260.4 147.368 260.459 147.269 260.475 147.159C260.492 147.05 260.467 146.938 260.404 146.847L257.19 142.154C257.162 142.114 257.125 142.081 257.082 142.058C257.039 142.036 256.991 142.024 256.942 142.024C256.893 142.024 256.845 142.036 256.802 142.058C256.759 142.081 256.722 142.114 256.694 142.154ZM231.307 127.157C231.314 127.263 231.299 127.369 231.263 127.469C231.227 127.57 231.171 127.661 231.099 127.739C231.026 127.817 230.938 127.879 230.84 127.921C230.743 127.963 230.637 127.985 230.531 127.986H13.9858C13.7562 127.986 13.5383 127.884 13.3906 127.709L0.181815 112.018C0.0867544 111.905 0.0259962 111.767 0.00666743 111.62C-0.0126613 111.474 0.0102414 111.325 0.0726881 111.191C0.135135 111.057 0.234535 110.943 0.359232 110.864C0.483929 110.784 0.62875 110.742 0.776708 110.742H229.47C229.667 110.742 229.857 110.817 230.001 110.952C230.145 111.088 230.232 111.272 230.245 111.469C230.246 111.479 230.247 111.489 230.247 111.499L231.307 127.157ZM231.338 149.007C231.432 149.12 231.492 149.258 231.511 149.405C231.53 149.551 231.507 149.7 231.444 149.833C231.382 149.967 231.283 150.08 231.158 150.16C231.033 150.239 230.889 150.281 230.741 150.281H170.905C170.791 150.281 170.679 150.257 170.577 150.209C170.474 150.161 170.383 150.091 170.31 150.005L165.383 144.152C165.287 144.038 165.227 143.9 165.207 143.754C165.188 143.607 165.211 143.458 165.273 143.324C165.336 143.19 165.435 143.077 165.56 142.997C165.685 142.918 165.83 142.875 165.978 142.875H226.157C226.173 142.875 226.19 142.879 226.204 142.886C226.219 142.892 226.232 142.903 226.243 142.915L231.338 149.007ZM223.056 139.059C222.984 139.133 222.897 139.191 222.802 139.231C222.707 139.271 222.605 139.291 222.502 139.291H23.5032C23.3898 139.291 23.2779 139.266 23.1751 139.218C23.0723 139.171 22.9813 139.101 22.9083 139.014L17.981 133.161C17.8855 133.048 17.8245 132.91 17.8049 132.764C17.7854 132.617 17.8082 132.468 17.8707 132.333C17.9333 132.199 18.0328 132.086 18.1578 132.006C18.2827 131.927 18.4277 131.885 18.5759 131.885H228.263C228.416 131.885 228.566 131.93 228.693 132.015C228.821 132.1 228.92 132.22 228.98 132.361C229.039 132.502 229.055 132.658 229.026 132.808C228.997 132.958 228.925 133.097 228.817 133.206L223.056 139.059ZM96.6123 144.152C96.5168 144.039 96.4558 143.901 96.4362 143.754C96.4167 143.607 96.4395 143.458 96.5021 143.324C96.5646 143.19 96.6641 143.076 96.7891 142.997C96.914 142.917 97.059 142.875 97.2072 142.875H157.161C157.274 142.875 157.386 142.9 157.489 142.948C157.592 142.995 157.683 143.065 157.756 143.152L162.683 149.005C162.778 149.118 162.839 149.256 162.858 149.403C162.877 149.549 162.855 149.698 162.792 149.832C162.73 149.966 162.63 150.08 162.506 150.159C162.381 150.239 162.236 150.281 162.088 150.281H102.134C102.021 150.281 101.909 150.257 101.806 150.209C101.704 150.161 101.613 150.091 101.54 150.005L96.6123 144.152ZM282.577 127.157L283.636 111.499C283.636 111.489 283.639 111.479 283.639 111.469C283.652 111.272 283.739 111.088 283.883 110.952C284.026 110.817 284.216 110.742 284.414 110.742H513.107C513.255 110.742 513.4 110.784 513.524 110.864C513.649 110.943 513.748 111.057 513.811 111.191C513.873 111.325 513.896 111.474 513.877 111.62C513.858 111.767 513.797 111.905 513.702 112.018L500.493 127.709C500.42 127.795 500.329 127.865 500.226 127.913C500.123 127.961 500.011 127.986 499.898 127.986H283.353C283.246 127.985 283.141 127.963 283.043 127.921C282.945 127.879 282.858 127.817 282.785 127.739C282.712 127.661 282.656 127.57 282.62 127.469C282.585 127.369 282.57 127.263 282.577 127.157H282.577ZM282.546 149.007L287.641 142.915C287.651 142.903 287.664 142.892 287.679 142.886C287.694 142.879 287.71 142.875 287.726 142.875H347.906C348.054 142.875 348.199 142.917 348.324 142.997C348.448 143.076 348.548 143.19 348.611 143.324C348.673 143.458 348.696 143.607 348.677 143.754C348.657 143.9 348.596 144.039 348.501 144.152L343.573 150.005C343.5 150.091 343.409 150.161 343.307 150.209C343.204 150.257 343.092 150.281 342.979 150.281H283.142C282.994 150.281 282.85 150.239 282.725 150.16C282.6 150.081 282.501 149.968 282.438 149.834C282.375 149.7 282.352 149.551 282.371 149.405C282.39 149.258 282.451 149.12 282.546 149.007ZM290.827 139.059L285.066 133.206C284.958 133.097 284.886 132.959 284.857 132.808C284.828 132.658 284.844 132.502 284.903 132.361C284.962 132.22 285.062 132.1 285.19 132.015C285.317 131.93 285.467 131.885 285.62 131.885H495.307C495.455 131.885 495.6 131.927 495.725 132.007C495.85 132.086 495.95 132.2 496.012 132.334C496.075 132.468 496.098 132.617 496.078 132.764C496.059 132.91 495.998 133.048 495.902 133.161L490.975 139.014C490.902 139.101 490.811 139.171 490.708 139.218C490.605 139.266 490.493 139.291 490.38 139.291H291.382C291.278 139.291 291.176 139.271 291.081 139.231C290.986 139.191 290.9 139.133 290.827 139.059ZM417.271 144.152L412.344 150.005C412.271 150.091 412.18 150.161 412.077 150.209C411.974 150.257 411.862 150.281 411.749 150.281H351.795C351.647 150.282 351.502 150.239 351.377 150.16C351.252 150.08 351.153 149.967 351.09 149.833C351.028 149.699 351.005 149.549 351.024 149.403C351.044 149.256 351.105 149.118 351.2 149.005L356.128 143.152C356.201 143.065 356.292 142.995 356.394 142.948C356.497 142.9 356.609 142.875 356.723 142.875H416.676C416.824 142.875 416.969 142.917 417.094 142.997C417.219 143.076 417.318 143.19 417.381 143.324C417.443 143.458 417.466 143.607 417.447 143.754C417.427 143.9 417.366 144.039 417.271 144.152Z" fill="#FFE900"/>
<path fill-rule="evenodd" clip-rule="evenodd" d="M184.718 42.4303V21.3979H150.029C149.848 21.398 149.668 21.3623 149.5 21.2929C149.333 21.2236 149.18 21.1219 149.052 20.9936C148.924 20.8654 148.822 20.7132 148.752 20.5457C148.683 20.3781 148.647 20.1986 148.647 20.0173V1.38069C148.647 1.01451 148.793 0.663325 149.052 0.404395C149.311 0.145465 149.663 0 150.029 0H363.771C364.138 0 364.489 0.145465 364.748 0.404395C365.008 0.663325 365.153 1.01451 365.153 1.38069V20.0173C365.153 20.3834 365.008 20.7346 364.748 20.9936C364.489 21.2525 364.138 21.3979 363.771 21.3979H329.082V42.4303H270.865V21.3979H242.936V42.4303H184.718ZM329.082 157.514V178.6H363.771L364.748 179.004L365.153 179.98V198.617L364.748 199.593L363.771 199.998H150.029L149.052 199.593L148.647 198.617V179.98L149.052 179.004L150.029 178.6H184.718V157.514H238.713L242.936 162.919V178.6H270.865V162.919L275.087 157.514H329.082ZM17.278 80.2677V94.6272C17.2779 95.0676 17.1027 95.49 16.791 95.8014C16.4793 96.1128 16.0566 96.2878 15.6158 96.2879H1.66213C1.22131 96.2879 0.798539 96.1129 0.486828 95.8015C0.175117 95.49 0 95.0676 0 94.6272V51.6393C0 51.1989 0.175117 50.7765 0.486828 50.4651C0.798539 50.1537 1.22131 49.9787 1.66213 49.9787H15.6158C16.0566 49.9788 16.4793 50.1538 16.791 50.4652C17.1027 50.7766 17.2779 51.1989 17.278 51.6393V64.6596H36.2973V51.6393C36.2974 51.1989 36.4725 50.7766 36.7842 50.4652C37.0959 50.1538 37.5186 49.9788 37.9594 49.9787H51.9131C52.354 49.9787 52.7767 50.1537 53.0884 50.4651C53.4001 50.7765 53.5753 51.1989 53.5753 51.6393V94.6272C53.5753 95.0676 53.4001 95.49 53.0884 95.8015C52.7767 96.1129 52.354 96.2879 51.9131 96.2879H37.9594C37.5186 96.2878 37.0959 96.1128 36.7842 95.8014C36.4725 95.49 36.2974 95.0676 36.2973 94.6272V80.2677H17.278ZM422.637 82.8433V94.6272C422.636 95.0676 422.461 95.49 422.15 95.8014C421.838 96.1128 421.415 96.2878 420.974 96.2879H407.021C406.803 96.2879 406.586 96.245 406.385 96.1615C406.183 96.0781 406 95.9558 405.845 95.8016C405.691 95.6474 405.569 95.4643 405.485 95.2628C405.402 95.0613 405.359 94.8453 405.359 94.6272V51.6393C405.359 51.4212 405.402 51.2053 405.485 51.0038C405.569 50.8023 405.691 50.6192 405.845 50.465C406 50.3108 406.183 50.1885 406.385 50.105C406.586 50.0216 406.803 49.9787 407.021 49.9787H447.779C448.026 49.9786 448.27 50.0335 448.493 50.1393C448.716 50.2451 448.912 50.3991 449.068 50.5903L456.227 59.3668C456.469 59.6633 456.6 60.0337 456.601 60.4159V70.275C456.6 70.6912 456.444 71.0921 456.163 71.3989L451.217 76.7752L456.203 82.6072C456.459 82.9081 456.6 83.2904 456.601 83.6857V94.6272C456.6 95.0676 456.425 95.4898 456.114 95.8016C455.802 96.1126 455.379 96.2874 454.939 96.2879H440.985C440.544 96.2877 440.122 96.1127 439.81 95.8013C439.498 95.4899 439.323 95.0676 439.323 94.6272V82.8433H422.637ZM422.637 62.303V70.519H439.323V62.303H422.637ZM497.177 78.1489H470.854C470.622 78.149 470.393 78.1006 470.181 78.0069C469.969 77.9132 469.779 77.7762 469.623 77.6048L462.183 69.4188C461.905 69.1133 461.751 68.7154 461.751 68.3026V60.4755C461.751 60.083 461.89 59.7032 462.144 59.4034L469.62 50.5672C469.776 50.3829 469.971 50.2348 470.19 50.1331C470.409 50.0315 470.648 49.9788 470.89 49.9787H500.648C501.13 49.9787 501.588 50.1873 501.904 50.5509L509.505 59.3005C509.768 59.6025 509.912 59.989 509.912 60.389V60.6423C509.912 61.0827 509.737 61.5051 509.426 61.8165C509.114 62.1279 508.691 62.3029 508.25 62.303H478.567V65.8247H504.554C505.038 65.8247 505.498 66.0351 505.813 66.4009L513.589 75.4112C513.85 75.7126 513.993 76.0975 513.993 76.4956V85.2391C513.993 85.6264 513.858 86.0015 513.61 86.2995L505.814 95.6876C505.658 95.8755 505.463 96.0267 505.242 96.1304C505.021 96.2342 504.779 96.2879 504.535 96.2879H471.145C470.668 96.2879 470.214 96.0833 469.899 95.7259L462.167 86.9687C461.899 86.6653 461.751 86.2746 461.751 85.87V84.5232C461.751 84.0828 461.926 83.6604 462.238 83.3489C462.549 83.0375 462.972 82.8626 463.413 82.8626H497.177V78.1489ZM106.977 94.6272C106.977 95.0676 106.802 95.49 106.491 95.8015C106.179 96.1129 105.756 96.2879 105.315 96.2879H62.3238C61.8829 96.2879 61.4602 96.1129 61.1485 95.8015C60.8368 95.49 60.6616 95.0676 60.6616 94.6272V51.6393C60.6616 51.1989 60.8368 50.7765 61.1485 50.4651C61.4602 50.1537 61.8829 49.9787 62.3238 49.9787H105.315C105.756 49.9787 106.179 50.1537 106.491 50.4651C106.802 50.7765 106.977 51.1989 106.977 51.6393V60.9591C106.977 61.3995 106.802 61.8219 106.491 62.1333C106.179 62.4447 105.756 62.6197 105.315 62.6197H77.9396V65.896H103.101C103.542 65.896 103.965 66.0709 104.276 66.3824C104.588 66.6938 104.763 67.1162 104.763 67.5566V76.8761C104.763 77.3165 104.588 77.7389 104.276 78.0504C103.965 78.3619 103.542 78.5369 103.101 78.537H77.9396V82.7816H105.315C105.756 82.7817 106.179 82.9567 106.49 83.2681C106.802 83.5795 106.977 84.0018 106.977 84.4422V94.6272ZM399.357 94.6272C399.357 95.0676 399.182 95.49 398.87 95.8015C398.559 96.1129 398.136 96.2879 397.695 96.2879H354.704C354.263 96.2879 353.84 96.1129 353.528 95.8015C353.217 95.49 353.042 95.0676 353.042 94.6272V51.6393C353.042 51.1989 353.217 50.7765 353.528 50.4651C353.84 50.1537 354.263 49.9787 354.704 49.9787H397.695C398.136 49.9787 398.559 50.1537 398.87 50.4651C399.182 50.7765 399.357 51.1989 399.357 51.6393V60.9591C399.357 61.3995 399.182 61.8219 398.87 62.1333C398.559 62.4447 398.136 62.6197 397.695 62.6197H370.319V65.896H395.481C395.699 65.8959 395.915 65.9389 396.117 66.0223C396.318 66.1057 396.502 66.228 396.656 66.3822C396.81 66.5365 396.933 66.7195 397.016 66.921C397.1 67.1225 397.143 67.3385 397.143 67.5566V76.8761C397.143 77.3166 396.968 77.739 396.656 78.0505C396.344 78.362 395.921 78.537 395.481 78.537H370.319V82.7816H397.695C398.136 82.7817 398.559 82.9567 398.87 83.2681C399.182 83.5795 399.357 84.0018 399.357 84.4422V94.6272ZM156.099 94.6272C156.098 95.0676 155.923 95.4898 155.612 95.8016C155.3 96.1126 154.877 96.2874 154.436 96.2879H115.722C115.281 96.2879 114.858 96.1129 114.546 95.8015C114.234 95.49 114.059 95.0676 114.059 94.6272V51.6393C114.059 51.1989 114.234 50.7765 114.546 50.4651C114.858 50.1537 115.281 49.9787 115.722 49.9787H129.675C130.116 49.9789 130.539 50.1539 130.85 50.4653C131.162 50.7767 131.337 51.199 131.337 51.6393V82.7816H154.436C154.877 82.7816 155.3 82.9566 155.612 83.268C155.923 83.5794 156.099 84.0018 156.099 84.4422V94.6272ZM203.388 94.6272C203.388 95.0677 203.212 95.4901 202.901 95.8015C202.589 96.1129 202.166 96.2879 201.725 96.2879H163.011C162.792 96.2879 162.576 96.245 162.374 96.1615C162.173 96.0781 161.989 95.9558 161.835 95.8016C161.681 95.6474 161.558 95.4643 161.475 95.2628C161.391 95.0613 161.348 94.8453 161.348 94.6272V51.6393C161.348 51.4212 161.391 51.2053 161.475 51.0038C161.558 50.8023 161.681 50.6192 161.835 50.465C161.989 50.3108 162.173 50.1885 162.374 50.105C162.576 50.0216 162.792 49.9787 163.011 49.9787H176.964C177.405 49.9787 177.828 50.1537 178.139 50.4649C178.451 50.7767 178.626 51.199 178.626 51.6393V82.7816H201.725C201.944 82.7816 202.16 82.8245 202.361 82.9079C202.563 82.9914 202.746 83.1137 202.901 83.2679C203.055 83.4221 203.178 83.6052 203.261 83.8067C203.345 84.0082 203.388 84.2241 203.388 84.4422V94.6272ZM264.745 85.7467C264.745 86.1242 264.616 86.4903 264.38 86.7852L257.257 95.6657C257.101 95.8599 256.904 96.0167 256.679 96.1244C256.455 96.2321 256.209 96.2879 255.96 96.2879H210.299C209.859 96.2879 209.436 96.1129 209.124 95.8015C208.812 95.49 208.637 95.0676 208.637 94.6272V51.6393C208.637 51.1989 208.812 50.7765 209.124 50.4651C209.436 50.1537 209.859 49.9787 210.299 49.9787H255.978C256.472 49.9787 256.941 50.1987 257.257 50.5789L264.362 59.1328C264.609 59.431 264.745 59.806 264.745 60.1932V85.7467ZM225.915 63.4852V82.7816H247.467V63.4852H225.915ZM286.587 49.9787C287.027 49.9787 287.45 50.1537 287.762 50.4651C288.074 50.7765 288.249 51.1989 288.249 51.6393V94.6272C288.249 95.0676 288.074 95.49 287.762 95.8015C287.45 96.1129 287.027 96.2879 286.587 96.2879H272.633C272.192 96.2879 271.769 96.1129 271.458 95.8015C271.146 95.49 270.971 95.0676 270.971 94.6272V51.6393C270.971 51.1989 271.146 50.7765 271.458 50.4651C271.769 50.1537 272.192 49.9787 272.633 49.9787H286.587ZM329.827 95.3157C329.695 95.6057 329.482 95.8516 329.214 96.024C328.945 96.1964 328.633 96.288 328.314 96.2879H312.523C312.204 96.288 311.891 96.1964 311.623 96.024C311.355 95.8516 311.142 95.6057 311.01 95.3157L291.406 52.3278C291.291 52.0748 291.241 51.797 291.261 51.5197C291.281 51.2425 291.371 50.9747 291.521 50.741C291.672 50.5072 291.879 50.3149 292.123 50.1818C292.367 50.0486 292.641 49.9788 292.919 49.9787H307.476C307.806 49.9786 308.13 50.0771 308.404 50.2617C308.679 50.4463 308.892 50.7086 309.016 51.0149L320.418 79.0895L331.821 51.0149C331.945 50.7086 332.158 50.4463 332.433 50.2617C332.707 50.0771 333.03 49.9786 333.361 49.9787H347.918C348.196 49.9788 348.47 50.0486 348.714 50.1818C348.958 50.3149 349.165 50.5072 349.316 50.741C349.466 50.9747 349.556 51.2425 349.576 51.5197C349.596 51.797 349.546 52.0748 349.431 52.3278L329.827 95.3157Z" fill="#FFE900"/>
</g>
<defs>
<clipPath id="clip0_2746_70">
<rect width="514" height="200" fill="white"/>
</clipPath>
</defs>
</svg>
