<svg width="491" height="491" viewBox="0 0 491 491" fill="none" xmlns="http://www.w3.org/2000/svg">
<mask id="path-1-inside-1_1641_4" fill="white">
<path d="M298.835 8.08206C302.658 0.732471 311.715 -2.1273 319.065 1.69534L403.346 45.5323C410.695 49.355 413.554 58.4113 409.732 65.7608L329.971 219.111L482.733 298.565C490.082 302.388 492.941 311.445 489.118 318.795L445.282 403.076C441.46 410.426 432.402 413.286 425.053 409.463L272.291 330.009L192.858 482.732C189.035 490.082 179.978 492.942 172.628 489.119L88.3468 445.282C80.9974 441.46 78.1385 432.403 81.9611 425.054L161.395 272.329L8.08117 192.588C0.731861 188.765 -2.12706 179.709 1.69543 172.359L45.5314 88.0772C49.3541 80.7278 58.4114 77.8688 65.7609 81.6914L219.074 161.432L298.835 8.08206Z"/>
</mask>
<path d="M298.835 8.08206L307.707 12.6965L307.707 12.6964L298.835 8.08206ZM319.065 1.69534L323.679 -7.17637L323.679 -7.1764L319.065 1.69534ZM403.346 45.5323L407.96 36.6606L407.96 36.6605L403.346 45.5323ZM409.732 65.7608L418.603 70.3751V70.3751L409.732 65.7608ZM329.971 219.111L321.099 214.497L316.485 223.369L325.356 227.983L329.971 219.111ZM482.733 298.565L478.118 307.437V307.437L482.733 298.565ZM489.118 318.795L480.247 314.181L480.247 314.181L489.118 318.795ZM445.282 403.076L454.154 407.691V407.691L445.282 403.076ZM425.053 409.463L420.439 418.335V418.335L425.053 409.463ZM272.291 330.009L276.905 321.137L268.034 316.523L263.419 325.395L272.291 330.009ZM192.858 482.732L201.729 487.347L201.729 487.347L192.858 482.732ZM172.628 489.119L168.014 497.991L168.014 497.991L172.628 489.119ZM88.3468 445.282L83.7323 454.154L83.7324 454.154L88.3468 445.282ZM81.9611 425.054L90.8328 429.668V429.668L81.9611 425.054ZM161.395 272.329L170.266 276.943L174.881 268.072L166.009 263.457L161.395 272.329ZM8.08117 192.588L3.46662 201.46L3.46682 201.46L8.08117 192.588ZM1.69543 172.359L-7.17634 167.745L-7.17635 167.745L1.69543 172.359ZM45.5314 88.0772L36.6597 83.4627L36.6596 83.4629L45.5314 88.0772ZM65.7609 81.6914L61.1465 90.5632L61.1465 90.5632L65.7609 81.6914ZM219.074 161.432L214.46 170.303L223.332 174.918L227.946 166.046L219.074 161.432ZM298.835 8.08206L307.707 12.6964C308.981 10.246 312.001 9.29314 314.45 10.5671L319.065 1.69534L323.679 -7.1764C311.429 -13.5478 296.334 -8.78108 289.963 3.46772L298.835 8.08206ZM319.065 1.69534L314.45 10.5671L398.731 54.404L403.346 45.5323L407.96 36.6605L323.679 -7.17637L319.065 1.69534ZM403.346 45.5323L398.731 54.4039C401.181 55.6782 402.134 58.6966 400.86 61.1464L409.732 65.7608L418.603 70.3751C424.974 58.1259 420.209 43.0318 407.96 36.6606L403.346 45.5323ZM409.732 65.7608L400.86 61.1464L321.099 214.497L329.971 219.111L338.843 223.726L418.603 70.3751L409.732 65.7608ZM329.971 219.111L325.356 227.983L478.118 307.437L482.733 298.565L487.347 289.694L334.585 210.24L329.971 219.111ZM482.733 298.565L478.118 307.437C480.568 308.711 481.521 311.73 480.247 314.181L489.118 318.795L497.99 323.409C504.361 311.16 499.597 296.065 487.347 289.694L482.733 298.565ZM489.118 318.795L480.247 314.181L436.411 398.462L445.282 403.076L454.154 407.691L497.99 323.409L489.118 318.795ZM445.282 403.076L436.411 398.462C435.136 400.912 432.117 401.865 429.667 400.591L425.053 409.463L420.439 418.335C432.688 424.706 447.783 419.939 454.154 407.691L445.282 403.076ZM425.053 409.463L429.667 400.591L276.905 321.137L272.291 330.009L267.677 338.881L420.439 418.335L425.053 409.463ZM272.291 330.009L263.419 325.395L183.986 478.118L192.858 482.732L201.729 487.347L281.163 334.623L272.291 330.009ZM192.858 482.732L183.986 478.118C182.711 480.569 179.692 481.521 177.242 480.247L172.628 489.119L168.014 497.991C180.264 504.362 195.358 499.596 201.729 487.347L192.858 482.732ZM172.628 489.119L177.242 480.247L92.9612 436.411L88.3468 445.282L83.7324 454.154L168.014 497.991L172.628 489.119ZM88.3468 445.282L92.9613 436.411C90.5115 435.136 89.5587 432.118 90.8328 429.668L81.9611 425.054L73.0893 420.439C66.7184 432.689 71.4834 447.783 83.7323 454.154L88.3468 445.282ZM81.9611 425.054L90.8328 429.668L170.266 276.943L161.395 272.329L152.523 267.715L73.0893 420.439L81.9611 425.054ZM161.395 272.329L166.009 263.457L12.6955 183.716L8.08117 192.588L3.46682 201.46L156.78 281.201L161.395 272.329ZM8.08117 192.588L12.6957 183.716C10.246 182.442 9.29306 179.423 10.5672 176.974L1.69543 172.359L-7.17635 167.745C-13.5472 179.994 -8.78224 195.088 3.46662 201.46L8.08117 192.588ZM1.69543 172.359L10.5672 176.974L54.4031 92.6915L45.5314 88.0772L36.6596 83.4629L-7.17634 167.745L1.69543 172.359ZM45.5314 88.0772L54.403 92.6917C55.6771 90.2422 58.6964 89.2888 61.1465 90.5632L65.7609 81.6914L70.3752 72.8197C58.1263 66.4488 43.0311 71.2134 36.6597 83.4627L45.5314 88.0772ZM65.7609 81.6914L61.1465 90.5632L214.46 170.303L219.074 161.432L223.689 152.56L70.3752 72.8197L65.7609 81.6914ZM219.074 161.432L227.946 166.046L307.707 12.6965L298.835 8.08206L289.963 3.46767L210.203 156.817L219.074 161.432Z" fill="#2563EB" mask="url(#path-1-inside-1_1641_4)"/>
</svg>
