<svg width="36" height="33" viewBox="0 0 36 33" fill="none" xmlns="http://www.w3.org/2000/svg">
<path d="M3.59993 7.62939e-06C2.64517 7.62939e-06 1.72952 0.379284 1.0544 1.0544C0.37928 1.72952 0 2.64518 0 3.59994V12.391C0 13.3457 0.37928 14.2614 1.0544 14.9365C1.72952 15.6116 2.64517 15.9909 3.59993 15.9909H8.59664C8.59664 17.2557 8.52225 18.5205 8.37345 19.7852C8.15025 21.1244 7.77826 22.3148 7.25747 23.3564C6.73668 24.398 6.06589 25.2175 5.2451 25.8151C4.42912 26.4847 3.38754 26.8195 2.12036 26.8195V32.3994C4.20352 32.3994 6.02749 31.953 7.59226 31.0602C9.1462 30.1787 10.4813 28.958 11.4982 27.4891C12.522 25.8722 13.2758 24.0995 13.7302 22.2404C14.1896 20.1894 14.4142 18.0927 14.3997 15.9909V3.59994C14.3997 2.64518 14.0205 1.72952 13.3453 1.0544C12.6702 0.379284 11.7546 7.62939e-06 10.7998 7.62939e-06H3.59993ZM25.1995 7.62939e-06C24.2448 7.62939e-06 23.3291 0.379284 22.654 1.0544C21.9789 1.72952 21.5996 2.64518 21.5996 3.59994V12.391C21.5996 13.3457 21.9789 14.2614 22.654 14.9365C23.3291 15.6116 24.2448 15.9909 25.1995 15.9909H30.1962C30.1962 17.2557 30.1219 18.5205 29.9731 19.7852C29.7475 21.1244 29.3755 22.3148 28.8571 23.3564C28.3363 24.398 27.6655 25.2175 26.8447 25.8151C26.0287 26.4847 24.9871 26.8195 23.72 26.8195V32.3994C25.8031 32.3994 27.6271 31.953 29.1919 31.0602C30.7458 30.1787 32.0809 28.958 33.0978 27.4891C34.1216 25.8722 34.8754 24.0995 35.3298 22.2404C35.7892 20.1894 36.0138 18.0927 35.9993 15.9909V3.59994C35.9993 2.64518 35.6201 1.72952 34.9449 1.0544C34.2698 0.379284 33.3542 7.62939e-06 32.3994 7.62939e-06H25.1995Z" fill="#424242"/>
</svg>
