<svg width="36" height="33" viewBox="0 0 36 33" fill="none" xmlns="http://www.w3.org/2000/svg">
<path d="M32.4001 32.3994C33.3548 32.3994 34.2705 32.0201 34.9456 31.345C35.6207 30.6699 36 29.7542 36 28.7995V20.0084C36 19.0537 35.6207 18.138 34.9456 17.4629C34.2705 16.7878 33.3548 16.4085 32.4001 16.4085H27.4034C27.4034 15.1437 27.4778 13.8789 27.6266 12.6142C27.8497 11.275 28.2217 10.0846 28.7425 9.04303C29.2633 8.00145 29.9341 7.18187 30.7549 6.58428C31.5709 5.91469 32.6125 5.5799 33.8796 5.5799V0C31.7965 0 29.9725 0.446392 28.4077 1.33918C26.8538 2.22071 25.5187 3.44137 24.5018 4.91031C23.478 6.52722 22.7242 8.29995 22.2698 10.159C21.8104 12.2101 21.5858 14.3067 21.6003 16.4085V28.7995C21.6003 29.7542 21.9795 30.6699 22.6547 31.345C23.3298 32.0201 24.2454 32.3994 25.2002 32.3994H32.4001ZM10.8005 32.3994C11.7552 32.3994 12.6709 32.0201 13.346 31.345C14.0211 30.6699 14.4004 29.7542 14.4004 28.7995V20.0084C14.4004 19.0537 14.0211 18.138 13.346 17.4629C12.6709 16.7878 11.7552 16.4085 10.8005 16.4085H5.80375C5.80375 15.1437 5.87815 13.8789 6.02695 12.6142C6.25254 11.275 6.62454 10.0846 7.14293 9.04303C7.66372 8.00145 8.33451 7.18187 9.15529 6.58428C9.97128 5.91469 11.0129 5.5799 12.28 5.5799V0C10.1969 0 8.3729 0.446392 6.80813 1.33918C5.25419 2.22071 3.91909 3.44137 2.9022 4.91031C1.87842 6.52722 1.12458 8.29995 0.670244 10.159C0.210833 12.2101 -0.0138067 14.3067 0.000656249 16.4085V28.7995C0.000656249 29.7542 0.379934 30.6699 1.05505 31.345C1.73017 32.0201 2.64583 32.3994 3.60059 32.3994H10.8005Z" fill="#424242"/>
</svg>
