<svg width="64" height="64" viewBox="0 0 64 64" fill="none" xmlns="http://www.w3.org/2000/svg">
<path d="M33.9993 1.28027C28.9543 1.28027 24.8393 5.30028 24.8393 10.2403C24.8393 12.5053 25.6443 14.0703 27.0393 16.0403C28.0243 17.4353 28.1443 18.3603 27.9593 18.7203C27.7793 19.0653 27.0893 19.2603 26.1993 19.2003C23.0343 18.9853 13.2343 17.8453 13.1993 17.8403C12.9793 17.8053 12.7543 17.8003 12.5593 17.8003C11.4393 17.8003 9.49434 18.3403 9.07934 21.9603C8.96934 22.4903 8.46934 25.3553 7.71934 35.2803C7.63934 35.6853 7.69935 36.0503 7.75934 36.3603C8.03434 37.7653 8.96435 38.6003 10.2393 38.6003C11.5593 38.6003 13.0593 37.7103 15.0793 36.2803C16.7643 35.0903 18.1643 34.5603 19.5993 34.5603C23.2343 34.5603 26.1993 37.4303 26.1993 40.9603C26.1993 44.4903 23.2343 47.3603 19.5993 47.3603C17.9043 47.3603 16.7393 46.8903 14.9993 45.5203C12.9793 43.9303 11.4543 43.2003 10.2393 43.2003C9.16435 43.2003 8.33434 43.7903 7.91934 44.8003C7.67934 45.3903 7.63434 46.2653 7.71934 46.7603C8.38434 53.7253 8.71434 55.0053 8.99934 56.1203L9.11934 56.6003C9.61434 58.7603 11.1443 60.1603 12.9993 60.1603H53.9993C56.9693 60.1603 58.8793 58.2753 58.8793 55.3603V22.2403C58.8793 20.0453 57.7093 18.5803 55.3593 17.8803C55.1993 17.8303 55.0093 17.8253 54.8393 17.8403C54.7443 17.8503 45.1343 18.8053 41.7193 19.2003C41.5893 19.2153 41.4443 19.2403 41.3193 19.2403C40.9943 19.2403 40.4143 19.1903 40.1993 18.8003C39.9643 18.3803 40.0293 17.4153 40.9193 16.0003L41.0793 15.7603C42.4443 13.5903 43.1193 12.4953 43.1193 10.2403C43.1193 5.30028 39.0443 1.28027 33.9993 1.28027Z" fill="#2563EB"/>
</svg>
