<svg width="72" height="72" viewBox="0 0 72 72" fill="none" xmlns="http://www.w3.org/2000/svg">
<path d="M36 31.5C33.5138 31.5 31.5 33.5138 31.5 36C31.5 38.4862 33.5138 40.5 36 40.5C38.4862 40.5 40.5 38.4862 40.5 36C40.5 33.5138 38.4862 31.5 36 31.5ZM36 38.25C34.7625 38.25 33.75 37.2375 33.75 36C33.75 34.7625 34.7625 33.75 36 33.75C37.2375 33.75 38.25 34.7625 38.25 36C38.25 37.2375 37.2375 38.25 36 38.25Z" fill="#EF4444"/>
<path d="M67.5 34.875H64.0913C63.5175 20.2612 51.7388 8.4825 37.125 7.90875V4.5C37.125 3.88125 36.6188 3.375 36 3.375C35.3812 3.375 34.875 3.88125 34.875 4.5V7.90875C20.2612 8.4825 8.4825 20.2612 7.90875 34.875H4.5C3.88125 34.875 3.375 35.3812 3.375 36C3.375 36.6188 3.88125 37.125 4.5 37.125H7.90875C8.4825 51.7388 20.2612 63.5175 34.875 64.0913V67.5C34.875 68.1188 35.3812 68.625 36 68.625C36.6188 68.625 37.125 68.1188 37.125 67.5V64.0913C51.7388 63.5175 63.5175 51.7388 64.0913 37.125H67.5C68.1188 37.125 68.625 36.6188 68.625 36C68.625 35.3812 68.1188 34.875 67.5 34.875ZM61.8413 34.875H52.8075C52.245 26.4713 45.5175 19.7437 37.1138 19.1812V10.1587C50.5013 10.7325 61.2675 21.4987 61.8413 34.875ZM47.25 37.125H50.5688C50.0175 44.2912 44.2912 50.0175 37.125 50.5688V47.25C37.125 46.6312 36.6188 46.125 36 46.125C35.3812 46.125 34.875 46.6312 34.875 47.25V50.5688C27.7087 50.0175 21.9825 44.2912 21.4312 37.125H24.75C25.3687 37.125 25.875 36.6188 25.875 36C25.875 35.3812 25.3687 34.875 24.75 34.875H21.4312C21.9825 27.7087 27.7087 21.9825 34.875 21.4312V24.75C34.875 25.3687 35.3812 25.875 36 25.875C36.6188 25.875 37.125 25.3687 37.125 24.75V21.4312C44.2912 21.9825 50.0175 27.7087 50.5688 34.875H47.25C46.6312 34.875 46.125 35.3812 46.125 36C46.125 36.6188 46.6312 37.125 47.25 37.125ZM34.875 10.1587V19.1925C26.4713 19.755 19.7437 26.4825 19.1812 34.8862H10.1587C10.7325 21.4988 21.4987 10.7325 34.875 10.1587ZM10.1587 37.125H19.1925C19.755 45.5288 26.4825 52.2563 34.8862 52.8188V61.8525C21.4988 61.2675 10.7325 50.5013 10.1587 37.125ZM37.125 61.8413V52.8075C45.5288 52.245 52.2563 45.5175 52.8188 37.1138H61.8525C61.2675 50.5013 50.5013 61.2675 37.125 61.8413Z" fill="#EF4444"/>
</svg>
