<svg width="64" height="64" viewBox="0 0 64 64" fill="none" xmlns="http://www.w3.org/2000/svg">
<g clip-path="url(#clip0_2707_12)">
<path d="M53.3484 40.1304C53.6684 39.8104 54.0884 39.6504 54.5084 39.6504C54.9284 39.6504 55.3484 39.8104 55.6684 40.1304C56.3084 40.7704 56.3084 41.8104 55.6684 42.4504L42.4484 55.6704C42.1284 55.9904 41.7084 56.1504 41.2884 56.1504C40.8684 56.1504 40.4484 55.9904 40.1284 55.6704C39.4884 55.0304 39.4884 53.9904 40.1284 53.3504L53.3484 40.1304Z" fill="#FACC15"/>
<path d="M62.4214 54.7798C64.5314 56.8898 64.5314 60.2998 62.4214 62.4098C60.3114 64.5198 56.9014 64.5198 54.7914 62.4098L47.0214 54.6398L54.6514 47.0098L62.4214 54.7798Z" fill="#FACC15"/>
<path d="M4.68178 17.1302C4.48178 16.9502 4.33178 16.7202 4.26178 16.4602L0.061779 1.84016C-0.248222 0.750158 0.751778 -0.249842 1.84178 0.0601578L16.4618 4.27016C16.7218 4.35016 16.9518 4.49016 17.1318 4.69016L32.0018 21.1002L42.3418 32.5202L48.5918 39.4202C49.1118 39.9902 49.0818 40.8602 48.5418 41.4002L41.3918 48.5502C40.8518 49.0902 39.9718 49.1202 39.4118 48.6002L32.0018 41.8902L21.6618 32.5202L4.68178 17.1402V17.1302Z" fill="#FACC15"/>
</g>
<defs>
<clipPath id="clip0_2707_12">
<rect width="64" height="64" fill="white" transform="matrix(-1 0 0 1 64 0)"/>
</clipPath>
</defs>
</svg>
