<svg width="1150" height="200" viewBox="0 0 1150 200" fill="none" xmlns="http://www.w3.org/2000/svg">
<g clip-path="url(#clip0_2717_80)">
<mask id="mask0_2717_80" style="mask-type:luminance" maskUnits="userSpaceOnUse" x="0" y="0" width="1150" height="200">
<path d="M1150 0H0V200H1150V0Z" fill="white"/>
</mask>
<g mask="url(#mask0_2717_80)">
<path d="M336.759 -4.15765e-05H281.651V200H375.326V162.275H336.759V-4.15765e-05ZM439.867 -4.15765e-05H384.759V200H478.434V162.275H439.867V-4.15765e-05ZM107.617 2.26662C106.875 1.52008 105.988 0.933729 105.011 0.543844C104.033 0.153962 102.986 -0.0311523 101.934 -4.15765e-05H27.6255C26.5745 -0.0329953 25.528 0.151304 24.5516 0.541325C23.5751 0.931346 22.6896 1.5187 21.9505 2.26662C14.8253 9.90641 8.03292 17.8499 1.59215 26.075C0.53937 27.5216 -0.0188097 29.2692 0.000483837 31.0583V168.933C0.000483837 170.683 0.525483 172.55 1.59215 173.917C8.026 182.14 14.81 190.083 21.9255 197.725C22.6673 198.472 23.5545 199.058 24.5321 199.448C25.5097 199.838 26.5568 200.023 27.6088 199.992H101.917C102.969 200.024 104.017 199.84 104.995 199.45C105.972 199.06 106.86 198.473 107.601 197.725C114.718 190.083 121.506 182.14 127.942 173.917C128.996 172.47 129.554 170.723 129.534 168.933V113.558H79.2172V166.683H50.3255V33.325H79.2172V86.4502H129.534V31.075C129.557 29.2853 128.998 27.5367 127.942 26.0917C121.501 17.8716 114.714 9.92833 107.601 2.28329L107.617 2.26662ZM248.584 2.26662C247.842 1.52008 246.955 0.933729 245.977 0.543844C245 0.153962 243.952 -0.0311523 242.901 -4.15765e-05H168.592C167.54 -0.0331477 166.492 0.151049 165.514 0.541046C164.537 0.931046 163.649 1.51846 162.909 2.26662C155.797 9.9135 149.01 17.8566 142.568 26.075C141.516 27.5222 140.958 29.2694 140.976 31.0583V199.992H191.301V141.075H220.184V199.992H270.509V31.0583C270.531 29.2688 269.972 27.5205 268.917 26.075C262.472 17.8607 255.688 9.91775 248.584 2.26662ZM191.309 107.817V33.3167H220.192V107.817H191.309ZM826.826 166.683H797.934V-4.15765e-05H747.609V168.942C747.609 170.683 748.134 172.558 749.201 173.925C756.126 182.842 764.417 192.258 769.542 197.733C770.284 198.479 771.172 199.065 772.149 199.455C773.127 199.845 774.173 200.03 775.226 200H849.525C850.575 200.032 851.625 199.848 852.608 199.459C853.583 199.071 854.475 198.487 855.217 197.742C862.325 190.097 869.108 182.153 875.55 173.933C876.608 172.487 877.167 170.739 877.142 168.95V-4.15765e-05H826.817L826.826 166.683ZM714.092 2.26662C713.353 1.51829 712.468 0.930671 711.492 0.54062C710.515 0.15057 709.468 -0.0334984 708.417 -4.15765e-05H606.517V200H708.417C709.468 200.032 710.515 199.848 711.493 199.46C712.471 199.072 713.358 198.487 714.101 197.742C721.215 190.097 728.002 182.153 734.442 173.933C735.509 172.55 736.034 170.675 736.034 168.95V31.075C736.057 29.2853 735.498 27.5367 734.442 26.0917C728.003 17.8695 721.217 9.92616 714.101 2.28329L714.092 2.26662ZM685.709 117.825V166.683H656.851V33.325H685.709V117.825ZM1082.92 -4.15765e-05H1129.97V87.1918C1129.97 88.8977 1129.37 90.5502 1128.29 91.8668L1095.28 131.758V200H1041.08V131.758L1008.19 91.8668C1007.09 90.556 1006.49 88.901 1006.5 87.1918V-4.15765e-05H1053.46V74.3416L1065.69 88.8585H1070.77L1082.92 74.3416V-4.15765e-05H1082.92Z" fill="white"/>
<path d="M516.219 40.9167C515.89 40.5822 515.494 40.3192 515.058 40.1443C514.622 39.9694 514.156 39.8862 513.686 39.9H476.061C475.592 39.8862 475.124 39.9694 474.688 40.1443C474.252 40.3192 473.857 40.5822 473.527 40.9167C471.236 43.3583 469.369 45.7333 466.269 49.725C465.8 50.3679 465.552 51.1457 465.561 51.9417V114.35C465.561 115.125 465.802 115.95 466.269 116.575C469.361 120.567 471.236 122.942 473.527 125.383C474.177 126.075 475.111 126.392 476.061 126.392H513.686C514.155 126.407 514.622 126.325 515.057 126.151C515.493 125.977 515.889 125.717 516.219 125.383C518.511 122.942 520.386 120.567 523.477 116.575C523.948 115.929 524.2 115.149 524.194 114.35V51.9417C524.201 51.1422 523.95 50.3619 523.477 49.7167C520.394 45.7333 518.511 43.3583 516.219 40.9167ZM501.711 91.9583V107.733H488.019V58.5417H501.711V91.9583ZM533.769 59.9833V126.383H556.252V97.8417H580.327V77.7583H556.252V59.9833H583.427V39.9H533.777L533.769 59.9833ZM996.659 0H887.901V40.9583H917.117V200H967.442V40.9583H996.659V0ZM1122.73 175.225H1134.63C1135.6 175.225 1136.34 175.475 1136.86 175.975C1137.39 176.483 1137.66 177.192 1137.66 178.125V181.183C1137.68 181.523 1137.63 181.863 1137.51 182.183C1137.39 182.502 1137.21 182.795 1136.98 183.042C1136.51 183.517 1135.87 183.742 1135.03 183.742H1134.03L1134.02 184.25C1134.35 184.308 1134.63 184.45 1134.83 184.692C1135.13 185.041 1135.38 185.438 1135.55 185.867L1137.99 190.967H1134.46L1131.57 184.658H1125.63V190.967H1122.73L1122.73 175.225ZM1134.33 182.342C1134.43 182.347 1134.54 182.317 1134.63 182.258C1134.71 182.162 1134.75 182.04 1134.74 181.917V177.975C1134.74 177.825 1134.71 177.725 1134.63 177.658C1134.56 177.583 1134.46 177.55 1134.33 177.55H1125.62V182.325L1134.33 182.342Z" fill="white"/>
<path d="M1130 166.684C1125.58 166.684 1121.34 168.438 1118.22 171.56C1115.1 174.683 1113.35 178.917 1113.35 183.334C1113.35 187.749 1115.1 191.984 1118.22 195.107C1121.34 198.229 1125.58 199.984 1130 199.984C1134.41 199.984 1138.65 198.229 1141.77 195.107C1144.89 191.984 1146.65 187.749 1146.65 183.334C1146.65 178.917 1144.89 174.683 1141.77 171.56C1138.65 168.438 1134.41 166.684 1130 166.684ZM1130 197.425C1126.26 197.424 1122.68 195.939 1120.04 193.297C1117.4 190.655 1115.92 187.073 1115.92 183.338C1115.92 179.602 1117.4 176.02 1120.04 173.38C1122.68 170.739 1126.27 169.257 1130.01 169.259C1131.85 169.259 1133.68 169.624 1135.39 170.332C1137.1 171.04 1138.66 172.078 1139.96 173.386C1141.27 174.694 1142.31 176.247 1143.02 177.956C1143.72 179.664 1144.08 181.496 1144.08 183.346C1144.08 185.195 1143.72 187.026 1143.01 188.734C1142.3 190.444 1141.27 191.995 1139.96 193.303C1138.65 194.61 1137.09 195.647 1135.38 196.354C1133.67 197.062 1131.84 197.425 1130 197.425Z" fill="white"/>
</g>
</g>
<defs>
<clipPath id="clip0_2717_80">
<rect width="1150" height="200" fill="white"/>
</clipPath>
</defs>
</svg>
