<svg width="1398" height="200" viewBox="0 0 1398 200" fill="none" xmlns="http://www.w3.org/2000/svg">
<g clip-path="url(#clip0_2708_2)">
<path d="M100.42 66.4901V36.0501C100.42 -2.64993 63.47 0.0400714 55.53 0.0400714H0V199.96H55.53C63.47 199.96 100.42 202.65 100.42 163.94V133.5C100.42 107.98 89.1 101.77 85.5 99.9901C89.1 98.2101 100.42 92.0001 100.42 66.4801V66.4901ZM32.46 29.5301H54.86C65.62 29.5301 67.83 33.2601 67.83 40.6101V74.0401C67.83 80.9601 63.89 85.2501 54.99 85.2501H32.46V29.5301ZM67.83 159.38C67.83 166.73 65.62 170.46 54.86 170.46H32.46V114.74H54.99C63.89 114.74 67.83 119.03 67.83 125.95V159.38ZM1196.31 36.0601C1196.31 -2.64993 1159.36 0.0400714 1151.42 0.0400714H1095.89V199.96H1151.42C1159.36 199.96 1196.31 202.65 1196.31 163.94V36.0601ZM1163.72 159.38C1163.72 166.73 1161.51 170.46 1150.75 170.46H1128.35V29.4901H1150.88C1159.78 29.4901 1163.72 33.7801 1163.72 40.7001V159.38ZM664.34 7.13831e-05V29.4901H613.77V85.2501H661.34V114.74H613.77V170.5H664.34V200H581.31V7.13831e-05H664.34ZM962.86 7.13831e-05V29.4901H912.29V85.2501H959.86V114.74H912.29V170.5H962.86V200H879.83V7.13831e-05H962.86ZM780.7 7.13831e-05V29.4901H730.13V85.2501H777.7V114.74H730.13V200H697.67V7.13831e-05H780.7ZM1028.65 7.13831e-05V170.5H1079.22V200H996.19V7.13831e-05H1028.65ZM514.08 7.13831e-05V170.5H564.65V200H481.62V7.13831e-05H514.08ZM846.5 7.13831e-05V200H814.04V7.13831e-05H846.5ZM205.98 200H238.3L207.35 7.13831e-05H148.03L117.08 200H149.4L157.17 144.24H198.22L205.99 200H205.98ZM161.29 114.75L173.18 29.5001H182.18L194.07 114.75H161.28H161.29ZM460.54 7.13831e-05H355.87V29.5001H391.97V200H424.43V29.5001H460.54V7.13831e-05ZM345.33 7.13831e-05H240.66V29.5001H276.76V200H309.22V29.5001H345.33V7.13831e-05ZM1212.55 2.51007V15.0001H1209.92V2.51007H1204.86V7.13831e-05H1217.62V2.51007H1212.56H1212.55ZM1230.58 15.0301V4.77007L1227.59 11.3401H1225.86L1222.87 4.79007V15.0201H1220.24V0.0300714H1223.25L1226.76 7.43007L1230.22 0.0300714H1233.21V15.0301H1230.58ZM1352.26 77.3201H1338.94L1371.63 7.13831e-05H1336.31L1299.22 88.2801C1297.45 92.7801 1296.72 96.0101 1296.72 100.78V163.92C1296.72 202.65 1333.68 199.97 1341.59 199.97H1352.27C1360.18 199.97 1397.14 202.65 1397.14 163.92V113.33C1397.14 74.6501 1360.18 77.3301 1352.27 77.3301L1352.26 77.3201ZM1364.54 170.46H1329.31V106.82H1364.54V170.46Z" fill="white"/>
</g>
<defs>
<clipPath id="clip0_2708_2">
<rect width="1397.13" height="200" fill="white"/>
</clipPath>
</defs>
</svg>
